<svg width="49" height="49" viewBox="0 0 49 49" fill="none" xmlns="http://www.w3.org/2000/svg">
<path d="M38.7917 20.7637C38.7927 21.0687 38.7254 21.3701 38.5947 21.6456C38.4639 21.9212 38.2731 22.164 38.0363 22.3562L25.7863 32.2174C25.4209 32.5177 24.9627 32.6819 24.4898 32.6819C24.0169 32.6819 23.5587 32.5177 23.1933 32.2174L10.9433 22.0091C10.5264 21.6625 10.2642 21.1646 10.2144 20.6247C10.1646 20.0848 10.3314 19.5473 10.6779 19.1303C11.0245 18.7134 11.5225 18.4512 12.0623 18.4014C12.6022 18.3517 13.1397 18.5184 13.5567 18.8649L24.5 27.9912L35.4433 19.1712C35.743 18.9215 36.108 18.7629 36.4949 18.7142C36.8819 18.6654 37.2748 18.7285 37.6271 18.8961C37.9793 19.0636 38.2762 19.3285 38.4826 19.6595C38.689 19.9905 38.7962 20.3737 38.7917 20.7637Z" fill="black"/>
</svg>
