<svg width="36" height="37" viewBox="0 0 36 37" fill="none" xmlns="http://www.w3.org/2000/svg">
<path d="M6.48 3.37988C4.4928 3.37988 2.88 4.99268 2.88 6.97988V30.0199C2.88 32.0071 4.4928 33.6199 6.48 33.6199H29.52C31.5072 33.6199 33.12 32.0071 33.12 30.0199V6.97988C33.12 4.99268 31.5072 3.37988 29.52 3.37988H6.48ZM8.64 13.4599H13.4859C14.0115 13.4599 16.8553 13.4241 16.8553 16.0305C16.8553 17.4129 15.9118 17.8805 15.487 18.0893C16.1206 18.2909 17.28 18.8743 17.28 20.6599C17.28 23.4175 14.1189 23.5399 13.6941 23.5399H8.64V13.4599ZM20.88 13.4599H25.92V14.8999H20.88V13.4599ZM10.8 15.2093V17.5718H13.1189C13.4357 17.5718 14.4858 17.3983 14.4858 16.3399C14.4858 15.2815 13.1182 15.2093 12.9094 15.2093H10.8ZM23.5659 15.6199C26.3739 15.6199 27.1365 17.8085 27.2517 18.3269C27.3597 18.8525 27.36 19.3135 27.36 19.9399H21.6717C21.6717 20.5663 22.0037 21.9775 23.6813 21.9775C24.1277 21.9775 24.458 21.8699 24.7964 21.6611C25.1276 21.4523 25.2439 21.2498 25.3519 21.041H27.2447C26.9135 21.869 26.4673 22.4965 25.7977 22.9141C25.1281 23.3317 24.3505 23.5399 23.4577 23.5399C22.8961 23.5399 22.3416 23.4323 21.78 23.2235C21.3336 23.0147 20.8878 22.7048 20.5566 22.3952C20.2254 22.0784 20.0021 21.6606 19.7789 21.1422C19.5557 20.7246 19.44 20.0983 19.44 19.5799C19.44 19.0615 19.6491 15.6199 23.5659 15.6199ZM23.5659 17.081C21.9387 17.081 21.6717 18.6438 21.6717 18.7446H25.2436C25.1284 18.2262 24.6603 17.081 23.5659 17.081ZM10.8 19.0118V21.7905H13.2131C13.4212 21.7905 14.8894 21.7262 14.8894 20.4518C14.8894 19.1846 13.7358 19.0118 13.2131 19.0118H10.8Z" fill="#222222"/>
</svg>
