<svg width="45" height="45" viewBox="0 0 45 45" fill="none" xmlns="http://www.w3.org/2000/svg">
<path d="M11.25 11.25C11.25 10.2554 11.6451 9.30161 12.3483 8.59835C13.0516 7.89509 14.0054 7.5 15 7.5C15.4972 7.5 15.9742 7.30246 16.3258 6.95083C16.6774 6.59919 16.875 6.12228 16.875 5.625C16.875 5.12772 16.6774 4.65081 16.3258 4.29917C15.9742 3.94754 15.4972 3.75 15 3.75C13.0108 3.75 11.1032 4.54018 9.69667 5.9467C8.29014 7.35322 7.49997 9.26088 7.49997 11.25V16.875C7.49997 17.8696 7.10488 18.8234 6.40162 19.5266C5.69836 20.2299 4.74453 20.625 3.74997 20.625C3.25269 20.625 2.77577 20.8225 2.42414 21.1742C2.07251 21.5258 1.87497 22.0027 1.87497 22.5C1.87497 22.9973 2.07251 23.4742 2.42414 23.8258C2.77577 24.1775 3.25269 24.375 3.74997 24.375C4.74453 24.375 5.69836 24.7701 6.40162 25.4734C7.10488 26.1766 7.49997 27.1304 7.49997 28.125V33.75C7.49997 35.7391 8.29014 37.6468 9.69667 39.0533C11.1032 40.4598 13.0108 41.25 15 41.25C15.4972 41.25 15.9742 41.0525 16.3258 40.7008C16.6774 40.3492 16.875 39.8723 16.875 39.375C16.875 38.8777 16.6774 38.4008 16.3258 38.0492C15.9742 37.6975 15.4972 37.5 15 37.5C14.0054 37.5 13.0516 37.1049 12.3483 36.4016C11.6451 35.6984 11.25 34.7446 11.25 33.75V28.125C11.2439 27.0572 11.01 26.0031 10.5638 25.033C10.1175 24.063 9.46932 23.1994 8.66247 22.5C9.46932 21.8006 10.1175 20.937 10.5638 19.967C11.01 18.9969 11.2439 17.9428 11.25 16.875V11.25ZM41.25 20.625C40.2554 20.625 39.3016 20.2299 38.5983 19.5266C37.8951 18.8234 37.5 17.8696 37.5 16.875V11.25C37.5 9.26088 36.7098 7.35322 35.3033 5.9467C33.8967 4.54018 31.9891 3.75 30 3.75C29.5027 3.75 29.0258 3.94754 28.6741 4.29917C28.3225 4.65081 28.125 5.12772 28.125 5.625C28.125 6.12228 28.3225 6.59919 28.6741 6.95083C29.0258 7.30246 29.5027 7.5 30 7.5C30.9945 7.5 31.9484 7.89509 32.6516 8.59835C33.3549 9.30161 33.75 10.2554 33.75 11.25V16.875C33.756 17.9428 33.9899 18.9969 34.4362 19.967C34.8824 20.937 35.5306 21.8006 36.3375 22.5C35.5306 23.1994 34.8824 24.063 34.4362 25.033C33.9899 26.0031 33.756 27.0572 33.75 28.125V33.75C33.75 34.7446 33.3549 35.6984 32.6516 36.4016C31.9484 37.1049 30.9945 37.5 30 37.5C29.5027 37.5 29.0258 37.6975 28.6741 38.0492C28.3225 38.4008 28.125 38.8777 28.125 39.375C28.125 39.8723 28.3225 40.3492 28.6741 40.7008C29.0258 41.0525 29.5027 41.25 30 41.25C31.9891 41.25 33.8967 40.4598 35.3033 39.0533C36.7098 37.6468 37.5 35.7391 37.5 33.75V28.125C37.5 27.1304 37.8951 26.1766 38.5983 25.4734C39.3016 24.7701 40.2554 24.375 41.25 24.375C41.7472 24.375 42.2242 24.1775 42.5758 23.8258C42.9274 23.4742 43.125 22.9973 43.125 22.5C43.125 22.0027 42.9274 21.5258 42.5758 21.1742C42.2242 20.8225 41.7472 20.625 41.25 20.625Z" fill="#222222"/>
</svg>
