<svg width="68" height="68" viewBox="0 0 68 68" fill="none" xmlns="http://www.w3.org/2000/svg">
<path d="M58.3383 34L48.9883 24.65C48.6937 24.3938 48.4552 24.0795 48.2877 23.7269C48.1203 23.3742 48.0275 22.9907 48.0153 22.6005C48.003 22.2102 48.0716 21.8217 48.2166 21.4592C48.3616 21.0967 48.58 20.7681 48.858 20.494C49.136 20.2199 49.4677 20.0062 49.8322 19.8664C50.1967 19.7265 50.5862 19.6635 50.9762 19.6812C51.3662 19.699 51.7483 19.7972 52.0986 19.9696C52.4489 20.1421 52.7597 20.385 53.0117 20.6833L64.345 32.0166C64.8641 32.5463 65.1549 33.2583 65.1549 34C65.1549 34.7416 64.8641 35.4537 64.345 35.9833L53.0117 47.3166C52.473 47.7849 51.7774 48.0326 51.064 48.0103C50.3506 47.9879 49.6719 47.6971 49.1636 47.1959C48.6553 46.6948 48.3549 46.0203 48.3224 45.3073C48.2899 44.5942 48.5277 43.8952 48.9883 43.35L58.3383 34ZM9.63334 34L18.9833 43.35C19.4439 43.8952 19.6818 44.5942 19.6493 45.3073C19.6168 46.0203 19.3164 46.6948 18.8081 47.1959C18.2998 47.6971 17.6211 47.9879 16.9077 48.0103C16.1943 48.0326 15.4987 47.7849 14.96 47.3166L3.62667 35.9833C3.10753 35.4537 2.81674 34.7416 2.81674 34C2.81674 33.2583 3.10753 32.5463 3.62667 32.0166L14.96 20.6833C15.4987 20.215 16.1943 19.9673 16.9077 19.9897C17.6211 20.012 18.2998 20.3028 18.8081 20.804C19.3164 21.3051 19.6168 21.9796 19.6493 22.6926C19.6818 23.4057 19.4439 24.1047 18.9833 24.65L9.63334 34ZM31.0533 57.3466C30.85 58.0503 30.3821 58.6479 29.7477 59.014C29.1134 59.3802 28.3619 59.4864 27.6509 59.3105C26.9398 59.1346 26.3246 58.6901 25.9341 58.0704C25.5437 57.4507 25.4084 56.7039 25.5567 55.9866L36.89 10.6533C36.9672 10.2799 37.1189 9.92586 37.3362 9.61249C37.5535 9.29911 37.8317 9.03282 38.1543 8.82955C38.477 8.62629 38.8373 8.49023 39.2138 8.42955C39.5902 8.36886 39.975 8.38478 40.3452 8.47637C40.7154 8.56795 41.0632 8.73331 41.3679 8.96254C41.6727 9.19177 41.928 9.48015 42.1186 9.8104C42.3092 10.1407 42.4312 10.506 42.4773 10.8845C42.5233 11.263 42.4925 11.647 42.3867 12.0133L31.0533 57.3466Z" fill="#F8F8F8"/>
</svg>
