<svg width="45" height="45" viewBox="0 0 45 45" fill="none" xmlns="http://www.w3.org/2000/svg">
<path d="M10.4529 3.88881C10.9401 4.12298 11.25 4.61569 11.25 5.15627C11.25 6.71222 11.8352 7.60806 12.5684 8.69903L12.6217 8.77828C13.2452 9.70461 14.0625 10.9189 14.0625 12.6563C14.0625 14.4291 13.1678 15.993 11.8053 16.921C12.1637 17.2215 12.4813 17.5921 12.7542 18.0338C13.6463 19.4775 14.0625 21.6834 14.0625 24.8529C14.0625 28.0631 13.6313 31.9181 12.9289 34.9957C12.5796 36.5261 12.1471 37.9378 11.6301 38.9989C11.3737 39.525 11.0615 40.0389 10.6728 40.4409C10.2884 40.8382 9.69441 41.2592 8.90625 41.2592C8.11809 41.2592 7.52411 40.8382 7.13968 40.4409C6.75097 40.0389 6.43879 39.525 6.1824 38.9989C5.66544 37.9378 5.23286 36.5261 4.88361 34.9957C4.18119 31.9181 3.75 28.0631 3.75 24.8529C3.75 21.6834 4.16623 19.4775 5.05828 18.0338C5.33115 17.5921 5.64876 17.2215 6.00722 16.921C4.64471 15.993 3.75 14.4291 3.75 12.6563C3.75 11.9659 3.75064 10.7792 4.46889 9.2469C5.17179 7.74735 6.50749 6.02439 8.96527 4.05818C9.38739 3.72047 9.9657 3.65464 10.4529 3.88881ZM6.5625 12.6539V12.6563C6.5625 13.9507 7.61182 15 8.90625 15C10.2007 15 11.25 13.9507 11.25 12.6563C11.25 11.8331 10.9035 11.2639 10.234 10.2678L10.2111 10.2337C9.78197 9.59526 9.27512 8.84123 8.91339 7.87043C7.89474 8.90623 7.33219 9.765 7.01548 10.4406C6.5625 11.407 6.5625 12.0947 6.5625 12.6539ZM7.45093 19.5122C6.98572 20.265 6.5625 21.8091 6.5625 24.8529C6.5625 27.8559 6.97076 31.5009 7.62559 34.3699C7.95495 35.8131 8.33042 36.9862 8.71076 37.767C8.78077 37.9106 8.84636 38.0314 8.90625 38.1317C8.96614 38.0314 9.03172 37.9106 9.10174 37.767C9.48208 36.9862 9.85755 35.8131 10.1869 34.3699C10.8417 31.5009 11.25 27.8559 11.25 24.8529C11.25 21.8091 10.8268 20.265 10.3616 19.5122C10.1499 19.1694 9.93973 19.0073 9.75197 18.9161C9.54979 18.8181 9.28252 18.7592 8.90625 18.7592C8.52997 18.7592 8.26271 18.8181 8.06053 18.9161C7.87277 19.0073 7.66262 19.1694 7.45093 19.5122Z" fill="#222222"/>
<path d="M18.7499 27.9694C17.7406 27.8001 16.7768 27.4963 15.8776 27.0773C15.917 26.3154 15.9374 25.5694 15.9374 24.8529C15.9374 24.5233 15.9332 24.1999 15.9244 23.883C16.7702 24.4513 17.7246 24.8708 18.7499 25.1034V19.6875C18.7499 18.1342 20.0091 16.875 21.5623 16.875H29.0623C29.0623 12.2151 25.2848 8.4375 20.6248 8.4375C18.6967 8.4375 16.9195 9.08434 15.4985 10.1728C15.1244 9.13706 14.5897 8.34366 14.2177 7.79164L14.1422 7.67947C15.9746 6.38529 18.211 5.625 20.6248 5.625C26.838 5.625 31.8748 10.6618 31.8748 16.875H38.4373C39.9908 16.875 41.2498 18.1342 41.2498 19.6875V36.5625C41.2498 38.1157 39.9908 39.375 38.4373 39.375H21.5623C20.0091 39.375 18.7499 38.1157 18.7499 36.5625V27.9694ZM21.5623 28.0866V36.5625H38.4373V19.6875H31.5205C30.3469 24.2475 26.3862 27.6885 21.5623 28.0866ZM28.5823 19.6875H21.5623V25.2609C24.8232 24.9006 27.5239 22.6819 28.5823 19.6875Z" fill="#222222"/>
</svg>
