<svg width="61" height="61" viewBox="0 0 61 61" fill="none" xmlns="http://www.w3.org/2000/svg">
<path d="M8.65001 17.9183C8.01715 18.2717 7.625 18.9398 7.625 19.6646V43.0595C7.625 43.7798 8.01231 44.4445 8.63897 44.7996L29.514 56.6288C30.1256 56.9754 30.8744 56.9754 31.486 56.6288L52.361 44.7996C52.9877 44.4445 53.375 43.7798 53.375 43.0595V19.6646C53.375 18.9398 52.9828 18.2717 52.35 17.9183L31.475 6.26312C30.869 5.92479 30.131 5.92479 29.525 6.26312L8.65001 17.9183Z" stroke="#F8F8F8" stroke-width="4" stroke-miterlimit="10" stroke-linecap="round" stroke-linejoin="round"/>
<path d="M7.625 19.4437L29.514 31.8475C30.1256 32.1941 30.8744 32.1941 31.486 31.8475L53.375 19.4437" stroke="#F8F8F8" stroke-width="4" stroke-miterlimit="10" stroke-linecap="round" stroke-linejoin="round"/>
<path d="M30.5 57.1875V32.4062" stroke="#F8F8F8" stroke-width="4" stroke-miterlimit="10" stroke-linecap="round" stroke-linejoin="round"/>
</svg>
