<svg width="41" height="41" viewBox="0 0 41 41" fill="none" xmlns="http://www.w3.org/2000/svg">
<path d="M37.8826 15.4086L21.1038 6.44625C20.7266 6.24446 20.2734 6.24446 19.8962 6.44625L3.11744 15.4086C2.69063 15.6368 2.42877 16.0853 2.43998 16.5689C2.45119 17.0526 2.73387 17.4882 3.1703 17.6964L6.99483 19.5158V30.5145C6.99483 32.0072 8.48828 33.0875 11.5593 33.8186C13.9616 34.3903 17.1367 34.7058 20.4992 34.7058C23.8617 34.7058 27.036 34.3911 29.4391 33.8186C32.5109 33.0875 34.0036 32.0064 34.0036 30.5145V19.515L35.5315 18.7879V23.7471C35.5315 24.455 36.1048 25.0284 36.8127 25.0284C37.5206 25.0284 38.094 24.455 38.094 23.7471V17.5251C38.3758 17.2912 38.5496 16.9445 38.5584 16.5681C38.5712 16.0853 38.3086 15.636 37.8826 15.4086ZM31.4419 30.3264C31.18 30.553 30.2663 31.0511 28.1379 31.4795C26.0182 31.9063 23.3051 32.1417 20.5 32.1417C17.6949 32.1417 14.9818 31.9063 12.8621 31.4795C10.7345 31.0511 9.81998 30.5522 9.55813 30.3264V20.7338L19.9499 25.6778C20.1236 25.7603 20.3118 25.8019 20.5 25.8019C20.6882 25.8019 20.8764 25.7603 21.0501 25.6778L31.4419 20.7338V30.3264ZM32.1802 17.5451C32.1778 17.5459 32.1754 17.5467 32.173 17.5483L20.5 23.1017L8.82701 17.5483C8.82461 17.5475 8.82221 17.5467 8.81981 17.5451L6.56481 16.472L20.5 9.02877L34.4352 16.472L32.1802 17.5451Z" fill="#222222"/>
</svg>
