<svg width="60" height="60" viewBox="0 0 60 60" fill="none" xmlns="http://www.w3.org/2000/svg">
<path d="M53.3334 10H6.66671C5.78265 10 4.93481 10.3512 4.30968 10.9763C3.68456 11.6014 3.33337 12.4493 3.33337 13.3333V46.6667C3.33337 47.5507 3.68456 48.3986 4.30968 49.0237C4.93481 49.6488 5.78265 50 6.66671 50H53.3334C54.2174 50 55.0653 49.6488 55.6904 49.0237C56.3155 48.3986 56.6667 47.5507 56.6667 46.6667V13.3333C56.6667 12.4493 56.3155 11.6014 55.6904 10.9763C55.0653 10.3512 54.2174 10 53.3334 10V10ZM50.7667 46.6667H9.43337L21.1 34.6L18.7 32.2833L6.66671 44.7333V15.8667L27.3834 36.4833C28.0079 37.1042 28.8528 37.4526 29.7334 37.4526C30.614 37.4526 31.4588 37.1042 32.0834 36.4833L53.3334 15.35V44.5167L41.0667 32.25L38.7167 34.6L50.7667 46.6667ZM8.85004 13.3333H50.6334L29.7334 34.1167L8.85004 13.3333Z" fill="#222222"/>
</svg>
