<svg width="60" height="60" viewBox="0 0 60 60" fill="none" xmlns="http://www.w3.org/2000/svg">
<path d="M53.3333 10H6.66666C5.78261 10 4.93476 10.3512 4.30964 10.9763C3.68452 11.6014 3.33333 12.4493 3.33333 13.3333V46.6667C3.33333 47.5507 3.68452 48.3986 4.30964 49.0237C4.93476 49.6488 5.78261 50 6.66666 50H53.3333C54.2174 50 55.0652 49.6488 55.6904 49.0237C56.3155 48.3986 56.6667 47.5507 56.6667 46.6667V13.3333C56.6667 12.4493 56.3155 11.6014 55.6904 10.9763C55.0652 10.3512 54.2174 10 53.3333 10V10ZM50.7667 46.6667H9.43333L21.1 34.6L18.7 32.2833L6.66666 44.7333V15.8667L27.3833 36.4833C28.0079 37.1042 28.8527 37.4526 29.7333 37.4526C30.6139 37.4526 31.4588 37.1042 32.0833 36.4833L53.3333 15.35V44.5167L41.0667 32.25L38.7167 34.6L50.7667 46.6667ZM8.84999 13.3333H50.6333L29.7333 34.1167L8.84999 13.3333Z" fill="#F8F8F8"/>
</svg>
