<svg width="40" height="39" viewBox="0 0 40 39" fill="none" xmlns="http://www.w3.org/2000/svg">
<path d="M28.2917 4.875H12.0417C8.45206 4.875 5.54169 7.78537 5.54169 11.375V27.625C5.54169 31.2146 8.45206 34.125 12.0417 34.125H21.1758V22.8134H17.3684V18.3853H21.1758V15.1271C21.1758 11.3506 23.4849 9.29175 26.8552 9.29175C27.9911 9.2885 29.1253 9.347 30.2547 9.46237V13.4111H27.9342C26.0979 13.4111 25.7404 14.2789 25.7404 15.5594V18.3788H30.1279L29.5576 22.8069H25.7144V34.125H28.2917C31.8813 34.125 34.7917 31.2146 34.7917 27.625V11.375C34.7917 7.78537 31.8813 4.875 28.2917 4.875Z" fill="#F8F8F8"/>
</svg>
