<svg width="40" height="39" viewBox="0 0 40 39" fill="none" xmlns="http://www.w3.org/2000/svg">
<path d="M27.9583 4.875H11.7083C8.11869 4.875 5.20831 7.78537 5.20831 11.375V27.625C5.20831 31.2146 8.11869 34.125 11.7083 34.125H20.8424V22.8134H17.0351V18.3853H20.8424V15.1271C20.8424 11.3506 23.1516 9.29175 26.5218 9.29175C27.6577 9.2885 28.7919 9.347 29.9213 9.46237V13.4111H27.6008C25.7646 13.4111 25.4071 14.2789 25.4071 15.5594V18.3788H29.7946L29.2242 22.8069H25.3811V34.125H27.9583C31.5479 34.125 34.4583 31.2146 34.4583 27.625V11.375C34.4583 7.78537 31.5479 4.875 27.9583 4.875Z" fill="#222222"/>
</svg>
