<svg width="39" height="39" viewBox="0 0 39 39" fill="none" xmlns="http://www.w3.org/2000/svg">
<path d="M28.4573 11.932C25.3333 11.932 22.9756 14.1133 22.0325 17.5411C20.5589 15.1105 19.3801 12.3683 18.7317 10H15.4309V19.1615C15.4309 20.9688 14.0163 22.4646 12.3069 22.4646C10.5976 22.4646 9.18293 20.9688 9.18293 19.1615V10.0623H6V19.2238C6 23.0255 8.88821 26.0793 12.4248 26.0793C15.9614 26.0793 18.8496 23.0255 18.8496 19.2238V17.6657C19.498 19.0368 20.3232 20.5326 21.2073 21.8414L19.1443 32H22.5041L23.9187 24.5836C25.2154 25.4561 26.689 25.9547 28.4573 25.9547C32.0528 25.9547 35 22.8385 35 18.8499C35 15.0482 32.0528 11.932 28.4573 11.932ZM28.4573 22.4646C27.1606 22.4646 25.8049 21.8414 24.7439 20.9065L25.0976 19.5354V19.4731C25.3333 17.9773 26.0996 15.4844 28.5163 15.4844C30.3435 15.4844 31.8171 17.0425 31.8171 18.9745C31.7581 20.9065 30.1667 22.4646 28.4573 22.4646Z" fill="black"/>
</svg>
