<svg width="39" height="39" viewBox="0 0 39 39" fill="none" xmlns="http://www.w3.org/2000/svg">
<path d="M19.5001 3.8999C10.885 3.8999 3.90015 10.8848 3.90015 19.4999C3.90015 26.8098 8.93375 32.9263 15.7197 34.6189C15.6469 34.4083 15.6001 34.1639 15.6001 33.861V31.1947C14.967 31.1947 13.9062 31.1947 13.6397 31.1947C12.5724 31.1947 11.6234 30.7358 11.1632 29.883C10.6523 28.9353 10.5639 27.4858 9.29775 26.5992C8.92205 26.3041 9.20805 25.9674 9.64095 26.0129C10.4404 26.2391 11.1034 26.7877 11.7274 27.6015C12.3488 28.4166 12.6413 28.6012 13.8022 28.6012C14.3651 28.6012 15.2075 28.5687 16.0005 28.4439C16.4269 27.361 17.164 26.3639 18.0649 25.8933C12.8701 25.359 10.391 22.7746 10.391 19.2659C10.391 17.7553 11.0345 16.2941 12.1278 15.063C11.769 13.841 11.3179 11.3489 12.2656 10.3999C14.603 10.3999 16.0161 11.9157 16.3554 12.3252C17.5202 11.9261 18.7994 11.6999 20.1436 11.6999C21.4904 11.6999 22.7748 11.9261 23.9422 12.3278C24.2776 11.9209 25.692 10.3999 28.0346 10.3999C28.9862 11.3502 28.5299 13.8527 28.1672 15.0721C29.254 16.3006 29.8936 17.7579 29.8936 19.2659C29.8936 22.772 27.4184 25.3551 22.2314 25.892C23.6588 26.6369 24.7001 28.7299 24.7001 30.3068V33.861C24.7001 33.9962 24.6702 34.0937 24.6546 34.2094C30.7334 32.0787 35.1001 26.3067 35.1001 19.4999C35.1001 10.8848 28.1152 3.8999 19.5001 3.8999Z" fill="#222222"/>
</svg>
