<svg width="40" height="39" viewBox="0 0 40 39" fill="none" xmlns="http://www.w3.org/2000/svg">
<path d="M19.8335 3.8999C11.2184 3.8999 4.23352 10.8848 4.23352 19.4999C4.23352 26.8098 9.26712 32.9263 16.0531 34.6189C15.9803 34.4083 15.9335 34.1639 15.9335 33.861V31.1947C15.3004 31.1947 14.2396 31.1947 13.9731 31.1947C12.9058 31.1947 11.9568 30.7358 11.4966 29.883C10.9857 28.9353 10.8973 27.4858 9.63112 26.5992C9.25542 26.3041 9.54142 25.9674 9.97432 26.0129C10.7738 26.2391 11.4368 26.7877 12.0608 27.6015C12.6822 28.4166 12.9747 28.6012 14.1356 28.6012C14.6985 28.6012 15.5409 28.5687 16.3339 28.4439C16.7603 27.361 17.4974 26.3639 18.3983 25.8933C13.2035 25.359 10.7244 22.7746 10.7244 19.2659C10.7244 17.7553 11.3679 16.2941 12.4612 15.063C12.1024 13.841 11.6513 11.3489 12.599 10.3999C14.9364 10.3999 16.3495 11.9157 16.6888 12.3252C17.8536 11.9261 19.1328 11.6999 20.477 11.6999C21.8238 11.6999 23.1082 11.9261 24.2756 12.3278C24.611 11.9209 26.0254 10.3999 28.368 10.3999C29.3196 11.3502 28.8633 13.8527 28.5006 15.0721C29.5874 16.3006 30.227 17.7579 30.227 19.2659C30.227 22.772 27.7518 25.3551 22.5648 25.892C23.9922 26.6369 25.0335 28.7299 25.0335 30.3068V33.861C25.0335 33.9962 25.0036 34.0937 24.988 34.2094C31.0668 32.0787 35.4335 26.3067 35.4335 19.4999C35.4335 10.8848 28.4486 3.8999 19.8335 3.8999Z" fill="#F8F8F8"/>
</svg>
