<svg width="38" height="39" viewBox="0 0 38 39" fill="none" xmlns="http://www.w3.org/2000/svg">
<path d="M12.6642 4.30005C7.77611 4.30005 3.79999 8.27986 3.79999 13.1692V25.8359C3.79999 30.7239 7.7798 34.7001 12.6691 34.7001H25.3358C30.2239 34.7001 34.2 30.7202 34.2 25.8309V13.1642C34.2 8.27618 30.2202 4.30005 25.3308 4.30005H12.6642ZM27.8667 9.36672C28.5659 9.36672 29.1333 9.93418 29.1333 10.6334C29.1333 11.3326 28.5659 11.9 27.8667 11.9C27.1675 11.9 26.6 11.3326 26.6 10.6334C26.6 9.93418 27.1675 9.36672 27.8667 9.36672ZM19 11.9C23.1914 11.9 26.6 15.3087 26.6 19.5C26.6 23.6915 23.1914 27.1 19 27.1C14.8086 27.1 11.4 23.6915 11.4 19.5C11.4 15.3087 14.8086 11.9 19 11.9ZM19 14.4334C17.6562 14.4334 16.3675 14.9672 15.4173 15.9174C14.4671 16.8676 13.9333 18.1563 13.9333 19.5C13.9333 20.8438 14.4671 22.1325 15.4173 23.0827C16.3675 24.0329 17.6562 24.5667 19 24.5667C20.3438 24.5667 21.6325 24.0329 22.5827 23.0827C23.5328 22.1325 24.0667 20.8438 24.0667 19.5C24.0667 18.1563 23.5328 16.8676 22.5827 15.9174C21.6325 14.9672 20.3438 14.4334 19 14.4334Z" fill="#F8F8F8"/>
</svg>
