<svg width="39" height="39" viewBox="0 0 39 39" fill="none" xmlns="http://www.w3.org/2000/svg">
<path d="M13.3308 4.30005C8.44274 4.30005 4.46661 8.27986 4.46661 13.1692V25.8359C4.46661 30.7239 8.44642 34.7001 13.3358 34.7001H26.0024C30.8905 34.7001 34.8666 30.7202 34.8666 25.8309V13.1642C34.8666 8.27618 30.8868 4.30005 25.9975 4.30005H13.3308ZM28.5333 9.36672C29.2325 9.36672 29.7999 9.93418 29.7999 10.6334C29.7999 11.3326 29.2325 11.9 28.5333 11.9C27.8341 11.9 27.2666 11.3326 27.2666 10.6334C27.2666 9.93418 27.8341 9.36672 28.5333 9.36672ZM19.6666 11.9C23.858 11.9 27.2666 15.3087 27.2666 19.5C27.2666 23.6915 23.858 27.1 19.6666 27.1C15.4752 27.1 12.0666 23.6915 12.0666 19.5C12.0666 15.3087 15.4752 11.9 19.6666 11.9ZM19.6666 14.4334C18.3229 14.4334 17.0341 14.9672 16.0839 15.9174C15.1338 16.8676 14.5999 18.1563 14.5999 19.5C14.5999 20.8438 15.1338 22.1325 16.0839 23.0827C17.0341 24.0329 18.3229 24.5667 19.6666 24.5667C21.0104 24.5667 22.2991 24.0329 23.2493 23.0827C24.1995 22.1325 24.7333 20.8438 24.7333 19.5C24.7333 18.1563 24.1995 16.8676 23.2493 15.9174C22.2991 14.9672 21.0104 14.4334 19.6666 14.4334Z" fill="#222222"/>
</svg>
