<svg width="141" height="141" viewBox="0 0 141 141" fill="none" xmlns="http://www.w3.org/2000/svg">
<circle cx="70.5" cy="70.5" r="70.5" fill="white"/>
<path d="M37.9756 56.5732C39.6572 56.5732 41.112 56.8135 42.3398 57.2939C43.5677 57.7477 44.6354 58.375 45.543 59.1758V64.7812C44.9023 64.3008 44.235 63.8337 43.541 63.3799C42.847 62.9261 42.0596 62.5524 41.1787 62.2588C40.3245 61.9652 39.3102 61.8184 38.1357 61.8184C36.5342 61.8184 35.0794 62.2054 33.7715 62.9795C32.4635 63.7536 31.4225 64.7946 30.6484 66.1025C29.8743 67.4105 29.4873 68.9053 29.4873 70.5869C29.4873 72.2419 29.8743 73.7367 30.6484 75.0713C31.4225 76.3792 32.4635 77.4202 33.7715 78.1943C35.0794 78.9417 36.5342 79.3154 38.1357 79.3154C39.9242 79.3154 41.4189 79.0485 42.6201 78.5146C43.848 77.9541 44.9557 77.2734 45.9434 76.4727V81.8779C45.0358 82.7054 43.9014 83.3727 42.54 83.8799C41.1787 84.3604 39.6572 84.6006 37.9756 84.6006C36.0537 84.6006 34.2386 84.2669 32.5303 83.5996C30.8219 82.9056 29.3138 81.9447 28.0059 80.7168C26.6979 79.4622 25.6702 77.9808 24.9229 76.2725C24.1755 74.5641 23.8018 72.6689 23.8018 70.5869C23.8018 68.5049 24.1755 66.6097 24.9229 64.9014C25.6702 63.193 26.6979 61.7249 28.0059 60.4971C29.3138 59.2425 30.8219 58.2816 32.5303 57.6143C34.2386 56.9202 36.0537 56.5732 37.9756 56.5732ZM82.435 56.9736V84H76.8695V67.6641L69.9828 75.1914H68.3813L61.4145 67.6641V84H55.849V56.9736H57.7309L69.182 68.9053L80.5531 56.9736H82.435ZM115.643 57.1738V58.6152L101.87 78.9951H115.643V84H93.1014V82.5586L106.635 62.1787H93.9822V57.1738H115.643Z" fill="#222222"/>
</svg>
