<svg width="83" height="40" viewBox="0 0 83 40" fill="none" xmlns="http://www.w3.org/2000/svg">
<path d="M22.3516 11.9453C23.3359 11.9453 24.1875 12.0859 24.9062 12.3672C25.625 12.6328 26.25 13 26.7812 13.4688V16.75C26.4062 16.4688 26.0156 16.1953 25.6094 15.9297C25.2031 15.6641 24.7422 15.4453 24.2266 15.2734C23.7266 15.1016 23.1328 15.0156 22.4453 15.0156C21.5078 15.0156 20.6562 15.2422 19.8906 15.6953C19.125 16.1484 18.5156 16.7578 18.0625 17.5234C17.6094 18.2891 17.3828 19.1641 17.3828 20.1484C17.3828 21.1172 17.6094 21.9922 18.0625 22.7734C18.5156 23.5391 19.125 24.1484 19.8906 24.6016C20.6562 25.0391 21.5078 25.2578 22.4453 25.2578C23.4922 25.2578 24.3672 25.1016 25.0703 24.7891C25.7891 24.4609 26.4375 24.0625 27.0156 23.5938V26.7578C26.4844 27.2422 25.8203 27.6328 25.0234 27.9297C24.2266 28.2109 23.3359 28.3516 22.3516 28.3516C21.2266 28.3516 20.1641 28.1562 19.1641 27.7656C18.1641 27.3594 17.2812 26.7969 16.5156 26.0781C15.75 25.3438 15.1484 24.4766 14.7109 23.4766C14.2734 22.4766 14.0547 21.3672 14.0547 20.1484C14.0547 18.9297 14.2734 17.8203 14.7109 16.8203C15.1484 15.8203 15.75 14.9609 16.5156 14.2422C17.2812 13.5078 18.1641 12.9453 19.1641 12.5547C20.1641 12.1484 21.2266 11.9453 22.3516 11.9453ZM48.3766 12.1797V28H45.1187V18.4375L41.0875 22.8438H40.15L36.0719 18.4375V28H32.8141V12.1797H33.9156L40.6187 19.1641L47.275 12.1797H48.3766ZM67.8156 12.2969V13.1406L59.7531 25.0703H67.8156V28H54.6203V27.1562L62.5422 15.2266H55.1359V12.2969H67.8156Z" fill="#222222"/>
<rect x="1.5" y="1.5" width="80" height="37" rx="5.5" stroke="#222222" stroke-width="3"/>
</svg>
