<svg width="45" height="45" viewBox="0 0 45 45" fill="none" xmlns="http://www.w3.org/2000/svg">
<g clip-path="url(#clip0_1:73)">
<path d="M39.3882 15.4163C39.3943 14.1156 39.0384 12.8389 38.3602 11.729C37.6821 10.6191 36.7085 9.71979 35.5483 9.13173C34.3881 8.54367 33.0872 8.29005 31.7911 8.39925C30.495 8.50845 29.2549 8.97617 28.2095 9.75005C27.1644 10.5246 26.3556 11.5749 25.8736 12.7831C25.3917 13.9914 25.2555 15.3099 25.4805 16.5911C25.7055 17.8724 26.2827 19.0657 27.1475 20.0374C28.0123 21.0091 29.1305 21.721 30.377 22.0932C29.9171 23.0289 29.2052 23.8177 28.3214 24.3709C27.4377 24.9241 26.4171 25.2197 25.3745 25.2244H19.7682C17.6937 25.2315 15.696 26.0101 14.1638 27.4088V13.8751C15.8653 13.5279 17.3772 12.5614 18.4065 11.1629C19.4358 9.76433 19.9091 8.03341 19.7346 6.30572C19.5602 4.57802 18.7505 2.97665 17.4624 1.81208C16.1743 0.64751 14.4997 0.00271606 12.7632 0.00271606C11.0267 0.00271606 9.35212 0.64751 8.06404 1.81208C6.77597 2.97665 5.96622 4.57802 5.79178 6.30572C5.61734 8.03341 6.09065 9.76433 7.11994 11.1629C8.14922 12.5614 9.66115 13.5279 11.3626 13.8751V30.9694C9.6643 31.2938 8.14342 32.2285 7.08683 33.5971C6.03024 34.9657 5.51098 36.6736 5.62699 38.3987C5.74299 40.1238 6.48625 41.7468 7.71657 42.9616C8.94688 44.1765 10.5792 44.8991 12.3056 44.9932C14.0321 45.0873 15.7333 44.5464 17.0884 43.4726C18.4434 42.3987 19.3587 40.8661 19.6616 39.1638C19.9644 37.4616 19.6339 35.7073 18.7324 34.232C17.8308 32.7566 16.4205 31.6622 14.7676 31.1551C15.2286 30.2207 15.9409 29.4332 16.8245 28.8811C17.7082 28.329 18.7282 28.0341 19.7701 28.0294H25.3763C27.1248 28.0209 28.8271 27.4675 30.2463 26.4462C31.6655 25.4249 32.731 23.9865 33.2945 22.3313C34.9745 22.1109 36.5177 21.289 37.6382 20.0179C38.7586 18.7468 39.3804 17.1126 39.3882 15.4182V15.4163ZM8.55946 7.0088C8.55946 6.45676 8.66819 5.91012 8.87945 5.4001C9.09071 4.89007 9.40036 4.42666 9.79071 4.0363C10.1811 3.64595 10.6445 3.3363 11.1545 3.12504C11.6645 2.91378 12.2112 2.80505 12.7632 2.80505C13.3153 2.80505 13.8619 2.91378 14.3719 3.12504C14.8819 3.3363 15.3454 3.64595 15.7357 4.0363C16.1261 4.42666 16.4357 4.89007 16.647 5.4001C16.8582 5.91012 16.967 6.45676 16.967 7.0088C16.967 8.12371 16.5241 9.19295 15.7357 9.9813C14.9474 10.7697 13.8781 11.2126 12.7632 11.2126C11.6483 11.2126 10.5791 10.7697 9.79071 9.9813C9.00236 9.19295 8.55946 8.12371 8.55946 7.0088ZM16.967 37.8357C16.967 38.3877 16.8582 38.9344 16.647 39.4444C16.4357 39.9544 16.1261 40.4178 15.7357 40.8082C15.3454 41.1985 14.8819 41.5082 14.3719 41.7194C13.8619 41.9307 13.3153 42.0394 12.7632 42.0394C12.2112 42.0394 11.6645 41.9307 11.1545 41.7194C10.6445 41.5082 10.1811 41.1985 9.79071 40.8082C9.40036 40.4178 9.09071 39.9544 8.87945 39.4444C8.66819 38.9344 8.55946 38.3877 8.55946 37.8357C8.55946 36.7208 9.00236 35.6515 9.79071 34.8632C10.5791 34.0748 11.6483 33.6319 12.7632 33.6319C13.8781 33.6319 14.9474 34.0748 15.7357 34.8632C16.5241 35.6515 16.967 36.7208 16.967 37.8357ZM32.3813 19.6201C31.2662 19.6201 30.1967 19.1771 29.4082 18.3885C28.6196 17.6 28.1766 16.5305 28.1766 15.4154C28.1766 14.3002 28.6196 13.2307 29.4082 12.4422C30.1967 11.6537 31.2662 11.2107 32.3813 11.2107C33.4965 11.2107 34.566 11.6537 35.3545 12.4422C36.143 13.2307 36.586 14.3002 36.586 15.4154C36.586 16.5305 36.143 17.6 35.3545 18.3885C34.566 19.1771 33.4965 19.6201 32.3813 19.6201Z" fill="#222222"/>
</g>
<defs>
<clipPath id="clip0_1:73">
<rect width="45" height="45" fill="white"/>
</clipPath>
</defs>
</svg>
