<svg width="55" height="55" viewBox="0 0 55 55" fill="none" xmlns="http://www.w3.org/2000/svg">
<path d="M38.183 17.415C34.1235 17.415 31.0596 20.1416 29.8341 24.4263C27.9192 21.3881 26.3873 17.9603 25.5447 15H21.2553V26.4518C21.2553 28.711 19.417 30.5807 17.1958 30.5807C14.9745 30.5807 13.1362 28.711 13.1362 26.4518V15.0779H9V26.5297C9 31.2819 12.7532 35.0992 17.349 35.0992C21.9447 35.0992 25.6979 31.2819 25.6979 26.5297V24.5822C26.5405 26.296 27.6128 28.1657 28.7617 29.8017L26.0809 42.5H30.4469L32.2852 33.2295C33.9703 34.3201 35.8852 34.9433 38.183 34.9433C42.8554 34.9433 46.6852 31.0482 46.6852 26.0623C46.6852 21.3102 42.8554 17.415 38.183 17.415ZM38.183 30.5807C36.4979 30.5807 34.7362 29.8017 33.3575 28.6331L33.8171 26.9193V26.8414C34.1235 24.9717 35.1192 21.8555 38.2596 21.8555C40.6341 21.8555 42.549 23.8031 42.549 26.2181C42.4724 28.6331 40.4043 30.5807 38.183 30.5807Z" fill="black"/>
</svg>
